<?xml version="1.0" standalone="no"?>
<!DOCTYPE svg PUBLIC "-//W3C//DTD SVG 20010904//EN"
 "http://www.w3.org/TR/2001/REC-SVG-20010904/DTD/svg10.dtd">
<svg version="1.0" xmlns="http://www.w3.org/2000/svg"
 width="480.000000pt" height="480.000000pt" viewBox="0 0 480.000000 480.000000"
 preserveAspectRatio="xMidYMid meet">
<metadata>
Created by potrace 1.11, written by Peter Selinger 2001-2013
</metadata>
<g transform="translate(0.000000,480.000000) scale(0.100000,-0.100000)"
fill="#000000" stroke="none">
<path d="M948 4035 c-3 -2 -36 -5 -248 -20 -36 -3 -87 -7 -115 -10 -27 -3 -81
-7 -120 -10 -38 -3 -92 -8 -120 -10 -169 -14 -223 -18 -245 -21 -14 -1 -33 -2
-42 -3 -10 -1 -27 -11 -39 -23 -39 -43 -23 -93 148 -458 22 -47 64 -137 93
-200 29 -63 70 -153 92 -200 22 -47 64 -137 93 -200 29 -63 66 -144 83 -180
16 -36 70 -153 120 -260 49 -107 104 -224 120 -260 17 -36 85 -181 151 -323
66 -142 130 -268 143 -279 72 -63 126 -63 358 -4 236 61 481 124 678 176 93
24 167 39 172 34 5 -5 82 -142 173 -304 91 -162 174 -311 186 -330 11 -19 24
-42 28 -50 4 -8 31 -55 60 -104 29 -49 53 -91 53 -94 0 -17 85 -114 112 -128
62 -32 66 -31 958 286 312 111 799 289 818 299 40 22 52 40 42 67 -11 28 -4
18 -343 473 -137 184 -251 339 -253 345 -2 7 115 42 314 95 339 90 382 104
382 130 0 9 -18 39 -41 66 -111 136 -104 127 -384 475 -158 197 -196 237 -235
247 -13 3 -83 -4 -155 -16 -71 -12 -143 -24 -160 -26 -16 -2 -97 -16 -180 -30
-191 -33 -182 -31 -235 -40 -55 -9 -90 -29 -90 -54 0 -10 111 -174 246 -365
135 -192 243 -350 240 -353 -4 -4 -327 -83 -1086 -264 -118 -28 -246 -59 -285
-68 l-70 -17 -587 979 c-323 539 -598 992 -613 1006 -24 24 -32 26 -120 27
-52 1 -95 0 -97 -1z m123 -163 c8 -15 116 -200 239 -412 123 -212 231 -398
240 -415 10 -16 75 -129 145 -250 123 -211 204 -350 386 -664 79 -136 82 -144
64 -157 -10 -8 -25 -14 -32 -14 -13 0 -121 -25 -393 -91 -69 -17 -136 -33
-150 -35 -14 -3 -43 -10 -65 -16 -22 -5 -49 -12 -60 -14 -11 -3 -63 -15 -115
-28 -90 -22 -120 -21 -120 5 0 4 -50 110 -111 236 -61 125 -140 287 -174 358
-35 72 -104 216 -155 320 -156 322 -259 534 -325 670 -34 72 -97 199 -139 284
-42 85 -76 162 -76 171 0 13 10 17 43 19 23 1 58 4 77 6 19 2 73 6 120 9 47 4
96 9 110 11 14 2 63 7 110 10 47 4 101 8 120 10 19 2 73 7 120 10 47 4 86 8
88 10 10 9 39 -10 53 -33z m3281 -1023 c120 -151 216 -278 215 -284 -3 -8
-544 -151 -584 -154 -17 -1 -445 589 -439 605 3 8 13 15 23 15 26 2 53 6 88
13 17 3 73 13 125 22 52 10 147 27 210 39 63 12 122 21 130 20 8 -1 113 -125
232 -276z m-212 -910 c113 -154 211 -288 218 -297 81 -109 92 -126 80 -138 -7
-6 -107 -43 -223 -82 -115 -39 -424 -144 -685 -233 -261 -88 -490 -166 -508
-172 -24 -8 -38 -7 -55 2 -18 10 -134 195 -273 439 -12 20 -67 116 -123 212
l-102 175 43 13 c24 7 52 14 63 16 17 4 602 156 1155 301 91 24 174 44 185 44
16 1 70 -66 225 -280z"/>
<path d="M2247 3504 c-2 -2 -28 -11 -58 -18 -64 -17 -238 -106 -207 -106 4 0
-8 -16 -26 -36 -53 -57 -66 -73 -66 -81 1 -5 -7 -30 -16 -58 -18 -56 -24 -152
-13 -205 4 -19 10 -48 13 -65 7 -41 100 -224 131 -257 14 -15 25 -31 25 -35 0
-10 132 -138 178 -173 19 -14 40 -31 47 -37 8 -7 18 -13 24 -13 6 0 11 -3 11
-8 0 -4 17 -16 38 -27 20 -10 45 -26 55 -34 9 -8 17 -10 17 -5 0 5 4 4 8 -1
14 -20 242 -112 242 -98 0 3 6 0 14 -6 8 -6 18 -11 22 -10 5 1 11 0 14 -1 79
-31 335 -30 417 1 13 5 23 7 23 4 0 -6 88 36 125 60 53 33 117 108 145 170 15
33 28 67 29 75 8 73 6 165 -6 215 -14 62 -62 178 -75 183 -4 2 -8 9 -8 16 0
11 -22 44 -73 110 -25 32 -132 141 -168 171 -84 69 -303 195 -338 195 -6 0
-19 4 -29 9 -33 19 -132 47 -202 58 -43 7 -287 12 -293 7z m298 -35 c39 -7
108 -25 155 -41 47 -16 90 -30 95 -31 6 -1 17 -7 25 -12 8 -5 36 -20 62 -32
44 -20 143 -84 191 -122 29 -23 158 -152 182 -182 38 -48 61 -84 82 -129 66
-142 65 -137 66 -270 1 -128 -23 -190 -104 -271 -33 -33 -66 -59 -73 -59 -8 0
-16 -4 -18 -9 -1 -5 -10 -11 -18 -13 -8 -2 -17 -6 -20 -10 -3 -4 -15 -9 -25
-11 -11 -1 -24 -5 -30 -9 -29 -17 -227 -41 -250 -29 -5 3 -30 6 -55 7 -25 1
-47 3 -50 4 -3 1 -8 2 -11 2 -4 -1 -22 3 -40 9 -19 6 -43 12 -53 14 -39 9
-121 38 -133 48 -7 5 -13 7 -13 3 0 -3 -26 8 -57 25 -32 17 -76 41 -98 52 -22
12 -45 27 -51 32 -7 6 -25 19 -40 30 -16 11 -39 30 -52 43 -13 12 -25 22 -28
22 -7 0 -108 103 -126 130 -10 14 -30 43 -45 65 -47 66 -116 224 -112 253 1 4
0 9 -1 12 -10 19 -5 160 7 188 7 17 10 32 7 32 -4 0 0 7 7 16 7 9 14 23 16 32
1 9 7 18 12 20 6 2 11 8 11 12 0 15 74 86 118 114 81 51 238 86 352 79 25 -2
77 -8 115 -14z"/>
<path d="M2265 3408 c-75 -20 -169 -69 -185 -96 -5 -9 -10 -13 -10 -8 0 16
-50 -56 -70 -100 -10 -23 -21 -56 -25 -73 -8 -37 -1 -38 92 -16 113 27 121 27
133 5 9 -17 6 -20 -30 -30 l-40 -11 76 -72 c110 -104 149 -140 264 -247 56
-52 137 -127 179 -167 41 -39 77 -71 78 -69 2 1 -4 27 -13 56 -15 51 -18 63
-29 113 -3 12 -9 33 -14 47 -11 28 -42 138 -45 158 -1 7 -14 23 -28 35 -33 29
-141 124 -185 163 -24 22 -42 30 -59 26 -34 -6 -74 6 -74 23 0 8 3 15 8 16 4
0 23 2 42 4 43 5 96 13 132 21 15 3 30 6 33 6 2 0 28 6 56 13 54 14 74 12 83
-10 3 -9 -8 -18 -31 -26 l-37 -12 45 -39 c24 -22 79 -72 123 -112 86 -78 98
-89 211 -191 43 -38 105 -96 139 -127 63 -59 83 -71 71 -40 -4 9 -11 31 -17
47 -5 17 -13 39 -18 50 -8 18 -23 63 -25 75 -2 14 -47 126 -62 153 -20 39
-106 126 -151 152 -17 11 -32 23 -32 27 0 4 -6 8 -13 8 -17 0 -108 82 -110
100 -2 8 -5 20 -9 25 -9 16 10 55 27 55 35 0 11 20 -47 39 -154 50 -313 61
-433 29z"/>
<path d="M2995 3221 c-3 -5 -2 -11 2 -13 9 -4 53 -64 53 -73 0 -3 9 -25 21
-49 11 -25 22 -51 23 -58 3 -18 55 -189 65 -213 7 -16 32 -96 36 -115 4 -19
50 -162 62 -192 9 -21 19 -35 24 -32 5 3 7 10 4 15 -4 5 -1 9 4 9 6 0 10 3 9
8 -1 4 3 16 9 27 15 27 30 111 27 155 -2 45 -13 110 -20 121 -3 5 -7 18 -9 29
-4 20 -13 40 -46 100 -30 55 -97 138 -162 200 -90 87 -95 91 -102 81z"/>
<path d="M1974 2987 c23 -129 93 -253 210 -372 47 -47 89 -85 94 -85 6 0 12
-4 14 -8 10 -25 217 -141 283 -158 6 -1 30 -9 54 -18 24 -9 55 -16 68 -16 l25
0 -29 24 c-15 13 -49 43 -74 67 -44 42 -155 143 -263 240 -27 24 -64 58 -82
74 -17 17 -67 62 -109 100 -43 39 -95 86 -115 105 -20 19 -47 44 -59 55 l-22
19 5 -27z"/>
<path d="M2700 2821 c0 -4 9 -36 20 -71 11 -34 17 -66 14 -71 -3 -5 -1 -9 4
-9 5 0 9 -6 9 -12 0 -7 10 -47 22 -88 12 -41 24 -83 27 -92 23 -93 43 -160 48
-166 9 -9 109 -8 136 1 14 5 40 11 58 13 18 2 62 18 97 35 73 36 73 39 -4 103
-49 41 -168 145 -212 186 -15 14 -51 45 -80 70 -29 25 -68 60 -87 78 -33 32
-52 40 -52 23z"/>
</g>
</svg>
